<svg width="40" height="40" viewBox="0 0 40 40" fill="none" xmlns="http://www.w3.org/2000/svg">
<path d="M18 20.0002L24.5 26.5002C24.8055 26.8057 24.9583 27.1946 24.9583 27.6668C24.9583 28.1391 24.8055 28.5279 24.5 28.8335C24.1944 29.1391 23.8055 29.2918 23.3333 29.2918C22.8611 29.2918 22.4722 29.1391 22.1666 28.8335L14.5 21.1668C14.3333 21.0002 14.2152 20.8196 14.1458 20.6252C14.0763 20.4307 14.0416 20.2224 14.0416 20.0002C14.0416 19.7779 14.0763 19.5696 14.1458 19.3752C14.2152 19.1807 14.3333 19.0002 14.5 18.8335L22.1666 11.1668C22.4722 10.8613 22.8611 10.7085 23.3333 10.7085C23.8055 10.7085 24.1944 10.8613 24.5 11.1668C24.8055 11.4724 24.9583 11.8613 24.9583 12.3335C24.9583 12.8057 24.8055 13.1946 24.5 13.5002L18 20.0002Z" fill="#1F1F1F"/>
</svg>
