<svg width="11" height="20" viewBox="0 0 11 20" fill="none" xmlns="http://www.w3.org/2000/svg">
<path d="M7.00001 9.99984L0.500011 3.49984C0.194456 3.19428 0.041678 2.80539 0.041678 2.33317C0.041678 1.86095 0.194456 1.47206 0.500011 1.1665C0.805567 0.860948 1.19446 0.708169 1.66668 0.708169C2.1389 0.708169 2.52779 0.860948 2.83335 1.1665L10.5 8.83317C10.6667 8.99984 10.7847 9.18039 10.8542 9.37484C10.9236 9.56928 10.9583 9.77761 10.9583 9.99984C10.9583 10.2221 10.9236 10.4304 10.8542 10.6248C10.7847 10.8193 10.6667 10.9998 10.5 11.1665L2.83334 18.8332C2.52779 19.1387 2.1389 19.2915 1.66668 19.2915C1.19445 19.2915 0.805566 19.1387 0.50001 18.8332C0.194454 18.5276 0.0416766 18.1387 0.0416767 17.6665C0.0416767 17.1943 0.194454 16.8054 0.50001 16.4998L7.00001 9.99984Z" fill="#1F1F1F"/>
</svg>
