<svg width="24" height="24" viewBox="0 0 24 24" fill="none" xmlns="http://www.w3.org/2000/svg">
<path d="M13.2 12.0002L9.29995 8.1002C9.11662 7.91686 9.02495 7.68353 9.02495 7.4002C9.02495 7.11686 9.11662 6.88353 9.29995 6.7002C9.48328 6.51686 9.71662 6.4252 9.99995 6.4252C10.2833 6.4252 10.5166 6.51686 10.7 6.7002L15.3 11.3002C15.4 11.4002 15.4708 11.5085 15.5125 11.6252C15.5541 11.7419 15.575 11.8669 15.575 12.0002C15.575 12.1335 15.5541 12.2585 15.5125 12.3752C15.4708 12.4919 15.4 12.6002 15.3 12.7002L10.7 17.3002C10.5166 17.4835 10.2833 17.5752 9.99995 17.5752C9.71662 17.5752 9.48328 17.4835 9.29995 17.3002C9.11662 17.1169 9.02495 16.8835 9.02495 16.6002C9.02495 16.3169 9.11662 16.0835 9.29995 15.9002L13.2 12.0002Z" fill="#92918A"/>
</svg>
