<svg width="44" height="44" viewBox="0 0 44 44" fill="none" xmlns="http://www.w3.org/2000/svg">
<path d="M28.25 25.75C28.25 27.4833 27.6417 28.9583 26.425 30.175C25.2083 31.3917 23.7333 32 22 32C20.2667 32 18.7917 31.3917 17.575 30.175C16.3583 28.9583 15.75 27.4833 15.75 25.75V16.5C15.75 15.25 16.1875 14.1875 17.0625 13.3125C17.9375 12.4375 19 12 20.25 12C21.5 12 22.5625 12.4375 23.4375 13.3125C24.3125 14.1875 24.75 15.25 24.75 16.5V25.25C24.75 26.0167 24.4833 26.6667 23.95 27.2C23.4167 27.7333 22.7667 28 22 28C21.2333 28 20.5833 27.7333 20.05 27.2C19.5167 26.6667 19.25 26.0167 19.25 25.25V17C19.25 16.7167 19.3458 16.4792 19.5375 16.2875C19.7292 16.0958 19.9667 16 20.25 16C20.5333 16 20.7708 16.0958 20.9625 16.2875C21.1542 16.4792 21.25 16.7167 21.25 17V25.25C21.25 25.4667 21.3208 25.6458 21.4625 25.7875C21.6042 25.9292 21.7833 26 22 26C22.2167 26 22.3958 25.9292 22.5375 25.7875C22.6792 25.6458 22.75 25.4667 22.75 25.25V16.5C22.7333 15.8 22.4875 15.2083 22.0125 14.725C21.5375 14.2417 20.95 14 20.25 14C19.55 14 18.9583 14.2417 18.475 14.725C17.9917 15.2083 17.75 15.8 17.75 16.5V25.75C17.7333 26.9333 18.1417 27.9375 18.975 28.7625C19.8083 29.5875 20.8167 30 22 30C23.1667 30 24.1583 29.5875 24.975 28.7625C25.7917 27.9375 26.2167 26.9333 26.25 25.75V17C26.25 16.7167 26.3458 16.4792 26.5375 16.2875C26.7292 16.0958 26.9667 16 27.25 16C27.5333 16 27.7708 16.0958 27.9625 16.2875C28.1542 16.4792 28.25 16.7167 28.25 17V25.75Z" fill="black"/>
</svg>
