<svg width="44" height="44" viewBox="0 0 44 44" fill="none" xmlns="http://www.w3.org/2000/svg">
<path d="M15 29C14.7167 29 14.4792 28.9042 14.2875 28.7125C14.0958 28.5208 14 28.2833 14 28C14 27.7167 14.0958 27.4792 14.2875 27.2875C14.4792 27.0958 14.7167 27 15 27H16V20C16 18.6167 16.4167 17.3875 17.25 16.3125C18.0833 15.2375 19.1667 14.5333 20.5 14.2V13.5C20.5 13.0833 20.6458 12.7292 20.9375 12.4375C21.2292 12.1458 21.5833 12 22 12C22.4167 12 22.7708 12.1458 23.0625 12.4375C23.3542 12.7292 23.5 13.0833 23.5 13.5V14.2C24.8333 14.5333 25.9167 15.2375 26.75 16.3125C27.5833 17.3875 28 18.6167 28 20V27H29C29.2833 27 29.5208 27.0958 29.7125 27.2875C29.9042 27.4792 30 27.7167 30 28C30 28.2833 29.9042 28.5208 29.7125 28.7125C29.5208 28.9042 29.2833 29 29 29H15ZM22 32C21.45 32 20.9792 31.8042 20.5875 31.4125C20.1958 31.0208 20 30.55 20 30H24C24 30.55 23.8042 31.0208 23.4125 31.4125C23.0208 31.8042 22.55 32 22 32Z" fill="black"/>
</svg>
