<svg width="10" height="10" viewBox="0 0 10 10" fill="none" xmlns="http://www.w3.org/2000/svg">
<path d="M4.99999 6.37539L2.08324 9.30039C1.89874 9.48372 1.66399 9.57539 1.37899 9.57539C1.09399 9.57539 0.859327 9.48372 0.674994 9.30039C0.491661 9.11706 0.399994 8.88372 0.399994 8.60039C0.399994 8.31706 0.491661 8.08372 0.674994 7.90039L3.59999 4.97539L0.674994 2.08364C0.491661 1.89914 0.399994 1.66439 0.399994 1.37939C0.399994 1.09439 0.491661 0.859724 0.674994 0.675391C0.858327 0.492057 1.09166 0.400391 1.37499 0.400391C1.65833 0.400391 1.89166 0.492057 2.07499 0.675391L4.99999 3.60039L7.89174 0.675391C8.07624 0.492057 8.31099 0.400391 8.59599 0.400391C8.88099 0.400391 9.11566 0.492057 9.29999 0.675391C9.49999 0.875391 9.59999 1.11289 9.59999 1.38789C9.59999 1.66289 9.49999 1.89206 9.29999 2.07539L6.37499 4.97539L9.29999 7.89214C9.48333 8.07664 9.57499 8.31139 9.57499 8.59639C9.57499 8.88139 9.48333 9.11606 9.29999 9.30039C9.09999 9.50039 8.86249 9.60039 8.58749 9.60039C8.31249 9.60039 8.08333 9.50039 7.89999 9.30039L4.99999 6.37539Z" fill="#92918A"/>
</svg>
