<svg width="24" height="24" viewBox="0 0 24 24" fill="none" xmlns="http://www.w3.org/2000/svg">
<g clip-path="url(#clip0_163_3445)">
<path d="M16.9988 11.04C16.9988 13.685 14.7588 15.8317 11.9988 15.8317C9.23878 15.8317 6.99878 13.685 6.99878 11.04H4.99878C4.99878 14.423 7.60878 17.2021 10.9988 17.6717V20.6234H12.9988V17.6717C16.3888 17.2021 18.9988 14.423 18.9988 11.04H16.9988Z" fill="black"/>
<path d="M11.9996 13.915C13.6596 13.915 14.9996 12.6309 14.9996 11.04V5.29004C14.9996 3.69921 13.6596 2.41504 11.9996 2.41504C10.3396 2.41504 8.99963 3.69921 8.99963 5.29004V11.04C8.99963 12.6309 10.3396 13.915 11.9996 13.915ZM10.9996 5.29004C10.9996 4.76296 11.4496 4.33171 11.9996 4.33171C12.5496 4.33171 12.9996 4.76296 12.9996 5.29004V11.04C12.9996 11.5671 12.5496 11.9984 11.9996 11.9984C11.4496 11.9984 10.9996 11.5671 10.9996 11.04V5.29004Z" fill="black"/>
<path d="M11.9996 13.915C13.6596 13.915 14.9996 12.6309 14.9996 11.04V5.29004C14.9996 3.69921 13.6596 2.41504 11.9996 2.41504C10.3396 2.41504 8.99963 3.69921 8.99963 5.29004V11.04C8.99963 12.6309 10.3396 13.915 11.9996 13.915Z" fill="black"/>
</g>
<defs>
<clipPath id="clip0_163_3445">
<rect width="24" height="23" fill="white" transform="translate(0 0.5)"/>
</clipPath>
</defs>
</svg>
