<svg width="16" height="16" viewBox="0 0 16 16" fill="none" xmlns="http://www.w3.org/2000/svg">
<path d="M10.7667 12.6673H3.33334C3.14445 12.6673 2.98612 12.6034 2.85834 12.4757C2.73056 12.3479 2.66667 12.1895 2.66667 12.0007C2.66667 11.8118 2.73056 11.6534 2.85834 11.5257C2.98612 11.3979 3.14445 11.334 3.33334 11.334H4.00001V6.66732C4.00001 6.30065 4.04723 5.93954 4.14167 5.58398C4.23612 5.22843 4.37779 4.88954 4.56667 4.56732L6.66668 6.66732H4.80001L1.40001 3.26732C1.27779 3.1451 1.21667 2.98954 1.21667 2.80065C1.21667 2.61176 1.27779 2.45621 1.40001 2.33398C1.52223 2.21176 1.67779 2.15065 1.86667 2.15065C2.05556 2.15065 2.21112 2.21176 2.33334 2.33398L13.6667 13.6673C13.7889 13.7895 13.8528 13.9423 13.8583 14.1257C13.8639 14.309 13.8 14.4673 13.6667 14.6007C13.5445 14.7229 13.3889 14.784 13.2 14.784C13.0111 14.784 12.8556 14.7229 12.7333 14.6007L10.7667 12.6673ZM12 8.48398C12 8.61732 11.9611 8.73954 11.8833 8.85065C11.8056 8.96176 11.7056 9.0451 11.5833 9.10065C11.4611 9.15621 11.3333 9.1701 11.2 9.14232C11.0667 9.11454 10.9556 9.05621 10.8667 8.96732L6.11667 4.21732C6.0389 4.13954 5.98334 4.05621 5.95001 3.96732C5.91668 3.87843 5.90001 3.78398 5.90001 3.68398C5.90001 3.56176 5.93056 3.44232 5.99167 3.32565C6.05279 3.20898 6.1389 3.12287 6.25001 3.06732C6.37223 3.01176 6.49445 2.96176 6.61667 2.91732C6.7389 2.87287 6.86667 2.83398 7.00001 2.80065V2.33398C7.00001 2.05621 7.09723 1.8201 7.29168 1.62565C7.48612 1.43121 7.72223 1.33398 8.00001 1.33398C8.27779 1.33398 8.5139 1.43121 8.70834 1.62565C8.90279 1.8201 9.00001 2.05621 9.00001 2.33398V2.80065C9.8889 3.02287 10.6111 3.4951 11.1667 4.21732C11.7222 4.93954 12 5.75621 12 6.66732V8.48398ZM8.00001 14.6673C7.66668 14.6673 7.36945 14.5757 7.10834 14.3923C6.84723 14.209 6.71668 13.9618 6.71668 13.6507C6.71668 13.5618 6.75279 13.4868 6.82501 13.4257C6.89723 13.3645 6.97779 13.334 7.06668 13.334H8.93334C9.02223 13.334 9.10279 13.3645 9.17501 13.4257C9.24723 13.4868 9.28334 13.5618 9.28334 13.6507C9.28334 13.9618 9.15279 14.209 8.89167 14.3923C8.63056 14.5757 8.33334 14.6673 8.00001 14.6673Z" fill="black"/>
</svg>
