<svg width="16" height="16" viewBox="0 0 16 16" fill="none" xmlns="http://www.w3.org/2000/svg">
<path d="M3.33335 12.6673C3.14446 12.6673 2.98613 12.6034 2.85835 12.4757C2.73058 12.3479 2.66669 12.1895 2.66669 12.0007C2.66669 11.8118 2.73058 11.6534 2.85835 11.5257C2.98613 11.3979 3.14446 11.334 3.33335 11.334H4.00002V6.66732C4.00002 5.7451 4.2778 4.92565 4.83335 4.20898C5.38891 3.49232 6.11113 3.02287 7.00002 2.80065V2.33398C7.00002 2.05621 7.09724 1.8201 7.29169 1.62565C7.48613 1.43121 7.72224 1.33398 8.00002 1.33398C8.2778 1.33398 8.51391 1.43121 8.70835 1.62565C8.9028 1.8201 9.00002 2.05621 9.00002 2.33398V2.80065C9.88891 3.02287 10.6111 3.49232 11.1667 4.20898C11.7222 4.92565 12 5.7451 12 6.66732V11.334H12.6667C12.8556 11.334 13.0139 11.3979 13.1417 11.5257C13.2695 11.6534 13.3334 11.8118 13.3334 12.0007C13.3334 12.1895 13.2695 12.3479 13.1417 12.4757C13.0139 12.6034 12.8556 12.6673 12.6667 12.6673H3.33335ZM8.00002 14.6673C7.63335 14.6673 7.31946 14.5368 7.05835 14.2757C6.79724 14.0145 6.66669 13.7007 6.66669 13.334H9.33335C9.33335 13.7007 9.2028 14.0145 8.94169 14.2757C8.68058 14.5368 8.36669 14.6673 8.00002 14.6673Z" fill="#92918A"/>
</svg>
