<svg width="24" height="24" viewBox="0 0 24 24" fill="none" xmlns="http://www.w3.org/2000/svg">
<path d="M10.8571 13.1429H5.14286C4.81905 13.1429 4.54762 13.0333 4.32857 12.8143C4.10952 12.5952 4 12.3238 4 12C4 11.6762 4.10952 11.4048 4.32857 11.1857C4.54762 10.9667 4.81905 10.8571 5.14286 10.8571H10.8571V5.14286C10.8571 4.81905 10.9667 4.54762 11.1857 4.32857C11.4048 4.10952 11.6762 4 12 4C12.3238 4 12.5952 4.10952 12.8143 4.32857C13.0333 4.54762 13.1429 4.81905 13.1429 5.14286V10.8571H18.8571C19.181 10.8571 19.4524 10.9667 19.6714 11.1857C19.8905 11.4048 20 11.6762 20 12C20 12.3238 19.8905 12.5952 19.6714 12.8143C19.4524 13.0333 19.181 13.1429 18.8571 13.1429H13.1429V18.8571C13.1429 19.181 13.0333 19.4524 12.8143 19.6714C12.5952 19.8905 12.3238 20 12 20C11.6762 20 11.4048 19.8905 11.1857 19.6714C10.9667 19.4524 10.8571 19.181 10.8571 18.8571V13.1429Z" fill="black"/>
</svg>
