<svg width="24" height="24" viewBox="0 0 24 24" fill="none" xmlns="http://www.w3.org/2000/svg">
<path d="M12 4.0752C12.0878 4.0752 12.182 4.0981 12.2891 4.15918C12.3428 4.1899 12.3894 4.23203 12.4277 4.2959L12.4639 4.36719V4.36914L14.3389 8.81934L14.4561 9.09668L14.7568 9.12305L19.583 9.54492C19.7071 9.56302 19.7844 9.59417 19.832 9.62305L19.8711 9.65137C19.9188 9.69313 19.9614 9.74685 19.9971 9.81836L20.0303 9.89648C20.0643 9.99041 20.0705 10.0819 20.0488 10.1816C20.0325 10.2564 19.9906 10.3377 19.8906 10.4277L16.2227 13.5967L15.9941 13.7939L16.0635 14.0889L17.1631 18.8135C17.1842 18.9054 17.1814 18.9723 17.167 19.0244L17.1484 19.0723C17.1106 19.1518 17.0631 19.2192 17.0049 19.2764L16.9434 19.3301C16.8743 19.3838 16.7926 19.4177 16.6836 19.4268C16.6017 19.4336 16.5172 19.4167 16.418 19.3535H16.4189L16.4082 19.3467L12.2578 16.8467L12 16.6914L11.7422 16.8467L7.5918 19.3467L7.58203 19.3535C7.48279 19.4167 7.39831 19.4336 7.31641 19.4268L7.23926 19.416C7.19133 19.4055 7.14932 19.3888 7.11133 19.3672L7.05664 19.3301C6.99144 19.2793 6.93693 19.2197 6.89258 19.1484L6.85156 19.0723C6.82396 19.0141 6.80871 18.9364 6.83691 18.8135L7.93652 14.0889L8.00586 13.7939L7.77734 13.5967L4.1084 10.4277C4.00887 10.3379 3.96744 10.2563 3.95117 10.1816C3.92948 10.0819 3.93565 9.99041 3.96973 9.89648C4.00034 9.8123 4.03883 9.74756 4.08301 9.69727L4.12891 9.65137C4.16857 9.61666 4.25062 9.56918 4.41602 9.54492L9.24414 9.12305L9.54395 9.09668L9.66113 8.81934L11.5361 4.36914V4.36719C11.5693 4.28772 11.6106 4.23373 11.6592 4.19434L11.7109 4.15918C11.818 4.09809 11.9122 4.0752 12 4.0752Z" stroke="#92918A"/>
</svg>
